<?xml version="1.0" encoding="utf-8"?>
<!-- Generator: Adobe Illustrator 17.0.0, SVG Export Plug-In . SVG Version: 6.00 Build 0)  -->
<!DOCTYPE svg PUBLIC "-//W3C//DTD SVG 1.1//EN" "http://www.w3.org/Graphics/SVG/1.1/DTD/svg11.dtd">
<svg version="1.1" id="Layer_1" xmlns="http://www.w3.org/2000/svg" xmlns:xlink="http://www.w3.org/1999/xlink" x="0px" y="0px"
	 width="29.942px" height="29.942px" viewBox="0 0 29.942 29.942" enable-background="new 0 0 29.942 29.942" xml:space="preserve">
<g>
	<path fill="#0067F6" d="M26.871,24.207c0,0.619,0,1.209,0,1.846c0.344,0,0.675,0,1.005,0c0.508,0,1.016-0.003,1.524,0.002
		c0.324,0.003,0.529,0.177,0.536,0.439c0.007,0.274-0.206,0.456-0.547,0.467c-0.076,0.002-0.151,0.001-0.227,0.001
		c-9.456,0-18.912,0-28.369,0c-0.086,0-0.173,0.003-0.259-0.001c-0.323-0.013-0.525-0.187-0.527-0.453
		c-0.003-0.264,0.202-0.45,0.521-0.452c0.724-0.005,1.448-0.002,2.172-0.002c0.116,0,0.232,0,0.365,0c0-0.635,0-1.233,0-1.866
		c-0.255,0-0.491,0.005-0.726-0.001c-1.117-0.028-2.02-0.917-2.021-2.036C0.31,16.444,0.31,10.738,0.317,5.031
		c0.001-1.103,0.875-1.982,1.986-2.047c0.108-0.006,0.216-0.004,0.324-0.004c8.224,0,16.448,0,24.673,0
		c1.491,0,2.329,0.837,2.329,2.328c0,5.566,0.001,11.131-0.001,16.697c0,1.104-0.661,1.955-1.69,2.144
		C27.602,24.212,27.251,24.189,26.871,24.207z M26.856,23.235c1.228,0.228,1.885-0.303,1.879-1.465
		c-0.031-5.491-0.014-10.982-0.014-16.472c0-0.97-0.436-1.408-1.4-1.408c-8.225,0-16.451,0-24.676,0
		c-0.995,0-1.425,0.426-1.425,1.415c0,5.523,0,11.047,0,16.57c0,0.097-0.003,0.195,0.002,0.292c0.023,0.483,0.319,0.922,0.786,1.04
		c0.334,0.084,0.694,0.067,1.077,0.098c0-0.182,0-0.299,0-0.416c0-0.865-0.002-1.729,0.001-2.594
		c0.002-0.415,0.155-0.577,0.561-0.578c1.221-0.005,2.443-0.005,3.664,0c0.388,0.002,0.552,0.165,0.555,0.556
		c0.007,0.8,0.003,1.6,0.003,2.4c0,0.191,0,0.383,0,0.588c0.528,0,1.018,0,1.534,0c0-0.148,0-0.276,0-0.404c0-2.832,0-5.664,0-8.496
		c0-0.541,0.134-0.677,0.664-0.678c1.135-0.001,2.27,0,3.405,0c0.611,0,0.723,0.11,0.723,0.709c0,2.832,0,5.664,0,8.496
		c0,0.125,0,0.25,0,0.371c0.54,0,1.031,0,1.547,0c0-0.139,0-0.256,0-0.373c0-1.275,0-2.551,0-3.826c0-0.582,0.113-0.693,0.708-0.693
		c1.124-0.001,2.248-0.001,3.372,0c0.583,0,0.711,0.125,0.711,0.699c0.001,1.286,0,2.572,0,3.859c0,0.113,0,0.227,0,0.339
		c0.534,0,1.017,0,1.534,0c0-0.156,0-0.293,0-0.431c0-3.189,0-6.377,0-9.566c0-0.558,0.128-0.682,0.691-0.682
		c1.124-0.001,2.248,0,3.372,0c0.611,0,0.721,0.109,0.721,0.712c0,3.189,0,6.377,0,9.566C26.856,22.988,26.856,23.115,26.856,23.235
		z M23.006,13.508c0,4.187,0,8.357,0,12.527c0.987,0,1.945,0,2.912,0c0-4.186,0-8.355,0-12.527
		C24.932,13.508,23.975,13.508,23.006,13.508z M10.331,26.029c1.005,0,1.972,0,2.938,0c0-3.821,0-7.618,0-11.424
		c-0.987,0-1.954,0-2.938,0C10.331,18.419,10.331,22.215,10.331,26.029z M19.605,26.034c0-2.255,0-4.491,0-6.742
		c-0.989,0-1.955,0-2.932,0c0,2.257,0,4.495,0,6.742C17.66,26.034,18.626,26.034,19.605,26.034z M4.022,20.638
		c0,1.809,0,3.602,0,5.399c0.986,0,1.943,0,2.913,0c0-1.81,0-3.604,0-5.399C5.95,20.638,4.992,20.638,4.022,20.638z M14.222,24.205
		c0,0.634,0,1.23,0,1.827c0.515,0,1.004,0,1.503,0c0-0.618,0-1.214,0-1.827C15.216,24.205,14.727,24.205,14.222,24.205z
		 M9.392,24.206c-0.515,0-0.996,0-1.499,0c0,0.615,0,1.212,0,1.825c0.508,0,0.997,0,1.499,0C9.392,25.418,9.392,24.827,9.392,24.206
		z M20.555,24.206c0,0.615,0,1.213,0,1.825c0.506,0,0.996,0,1.488,0c0-0.62,0-1.217,0-1.825
		C21.535,24.206,21.055,24.206,20.555,24.206z"/>
	<path fill="#0067F6" d="M10.699,10.297c-0.871,0.911-1.758,1.841-2.648,2.768c-0.247,0.257-0.5,0.51-0.764,0.749
		c-0.15,0.136-0.175,0.247-0.09,0.442c0.34,0.784,0.097,1.684-0.572,2.215c-0.634,0.503-1.571,0.527-2.238,0.057
		c-0.69-0.486-0.975-1.356-0.706-2.152c0.267-0.789,1.033-1.326,1.869-1.274c0.252,0.016,0.496,0.131,0.748,0.183
		c0.087,0.018,0.201,0.005,0.274-0.04c0.108-0.067,0.191-0.173,0.281-0.266c1.075-1.109,2.15-2.219,3.261-3.366
		c-0.208-0.408-0.294-0.927-0.109-1.468c0.137-0.4,0.376-0.726,0.726-0.967c0.673-0.463,1.594-0.43,2.237,0.082
		c0.712,0.567,0.875,1.407,0.503,2.356c1.219,1.269,2.415,2.515,3.616,3.766c0.51-0.251,1.028-0.443,1.499-0.207
		c0.51,0.255,0.744-0.001,1.047-0.307c0.989-0.998,1.992-1.981,2.997-2.963c0.14-0.137,0.183-0.234,0.094-0.436
		c-0.369-0.836-0.066-1.803,0.694-2.31c0.737-0.491,1.753-0.383,2.379,0.255c0.628,0.64,0.719,1.652,0.215,2.383
		c-0.52,0.754-1.481,1.035-2.321,0.656c-0.183-0.083-0.28-0.06-0.414,0.074c-1.11,1.106-2.224,2.208-3.343,3.304
		c-0.133,0.131-0.164,0.226-0.082,0.413c0.35,0.799,0.105,1.705-0.58,2.237c-0.665,0.516-1.616,0.516-2.29,0
		c-0.682-0.523-0.928-1.432-0.581-2.239c0.08-0.187,0.046-0.285-0.087-0.416c-1.128-1.103-2.249-2.213-3.377-3.316
		c-0.063-0.062-0.202-0.128-0.261-0.099C12.044,10.719,11.426,10.683,10.699,10.297z M11.789,7.762
		c-0.537,0.001-0.967,0.427-0.973,0.962c-0.006,0.545,0.438,0.995,0.979,0.993c0.528-0.002,0.967-0.439,0.973-0.968
		C12.775,8.199,12.34,7.761,11.789,7.762z M5.459,15.956c0.546,0.003,0.993-0.443,0.987-0.984c-0.006-0.527-0.448-0.967-0.974-0.971
		c-0.535-0.004-0.996,0.458-0.99,0.99C4.489,15.519,4.928,15.953,5.459,15.956z M25.427,8.729c-0.004-0.538-0.429-0.963-0.966-0.967
		c-0.546-0.004-0.995,0.442-0.99,0.983c0.005,0.523,0.45,0.967,0.973,0.972C24.989,9.722,25.431,9.277,25.427,8.729z M18.123,15.956
		c0.546,0.002,0.996-0.447,0.988-0.986c-0.008-0.521-0.456-0.966-0.978-0.969c-0.541-0.003-0.986,0.447-0.98,0.992
		C17.158,15.528,17.588,15.954,18.123,15.956z"/>
</g>
</svg>
