<?xml version="1.0" encoding="utf-8"?>
<!-- Generator: Adobe Illustrator 17.0.0, SVG Export Plug-In . SVG Version: 6.00 Build 0)  -->
<!DOCTYPE svg PUBLIC "-//W3C//DTD SVG 1.1//EN" "http://www.w3.org/Graphics/SVG/1.1/DTD/svg11.dtd">
<svg version="1.1" id="Layer_1" xmlns="http://www.w3.org/2000/svg" xmlns:xlink="http://www.w3.org/1999/xlink" x="0px" y="0px"
	 width="29.942px" height="29.942px" viewBox="0 0 29.942 29.942" enable-background="new 0 0 29.942 29.942" xml:space="preserve">
<g>
	<path fill="#0067F6" d="M15.323,0c0.099,0.035,0.198,0.072,0.298,0.105c1.001,0.329,1.599,1.322,1.411,2.362
		C17,2.64,17.017,2.744,17.188,2.842c2.422,1.39,4.84,2.789,7.259,4.185c0.041,0.024,0.086,0.041,0.136,0.063
		c0.548-0.51,1.177-0.759,1.927-0.613c0.924,0.18,1.607,0.926,1.69,1.844c0.088,0.967-0.436,1.833-1.338,2.167
		c-0.208,0.077-0.277,0.167-0.277,0.391c0.009,2.728,0.007,5.456,0.002,8.184c0,0.195,0.034,0.298,0.247,0.381
		c0.852,0.33,1.336,0.967,1.371,1.885c0.033,0.877-0.362,1.549-1.148,1.945c-0.81,0.407-1.584,0.29-2.294-0.269
		c-0.061-0.048-0.119-0.099-0.195-0.162c-0.783,0.453-1.565,0.905-2.348,1.357c-1.661,0.958-3.321,1.917-4.983,2.872
		c-0.152,0.087-0.255,0.157-0.217,0.375c0.202,1.151-0.442,2.137-1.571,2.439c-0.045,0.012-0.086,0.038-0.129,0.057
		c-0.234,0-0.468,0-0.702,0c-0.189-0.072-0.383-0.132-0.565-0.219c-0.853-0.411-1.315-1.317-1.145-2.248
		c0.031-0.172,0.018-0.277-0.155-0.376c-2.406-1.381-4.806-2.771-7.208-4.157c-0.058-0.033-0.121-0.058-0.188-0.09
		c-0.549,0.509-1.177,0.757-1.928,0.613c-0.919-0.177-1.606-0.925-1.691-1.844c-0.089-0.955,0.423-1.822,1.313-2.153
		c0.252-0.094,0.304-0.216,0.303-0.463c-0.009-2.699-0.008-5.398-0.001-8.096c0.001-0.221-0.046-0.332-0.275-0.422
		c-0.84-0.331-1.31-0.968-1.344-1.873C1.704,7.734,2.101,7.064,2.885,6.668C3.682,6.265,4.45,6.375,5.157,6.916
		c0.039,0.03,0.073,0.064,0.111,0.095c0.029,0.025,0.06,0.048,0.109,0.086c0.746-0.431,1.495-0.863,2.244-1.295
		c1.703-0.983,3.405-1.966,5.108-2.947c0.132-0.076,0.227-0.133,0.196-0.33c-0.191-1.238,0.409-2.143,1.623-2.48
		c0.026-0.007,0.048-0.03,0.072-0.045C14.855,0,15.089,0,15.323,0z M4.289,14.972c0,1.374,0.003,2.748-0.003,4.121
		c-0.001,0.177,0.036,0.268,0.223,0.339c0.25,0.096,0.486,0.245,0.699,0.409c0.134,0.103,0.219,0.106,0.356,0.026
		c1.405-0.817,2.815-1.626,4.217-2.448c0.088-0.051,0.177-0.189,0.178-0.287c0.011-1.442,0.011-2.884,0.001-4.326
		c-0.001-0.093-0.075-0.226-0.155-0.272c-1.42-0.83-2.845-1.652-4.274-2.465c-0.072-0.041-0.212-0.017-0.295,0.026
		c-0.24,0.125-0.453,0.312-0.703,0.403c-0.213,0.078-0.248,0.186-0.247,0.381C4.292,12.244,4.289,13.608,4.289,14.972z
		 M25.654,14.972c0-1.374-0.003-2.747,0.003-4.121c0.001-0.176-0.033-0.268-0.221-0.34c-0.25-0.096-0.486-0.245-0.699-0.408
		c-0.134-0.103-0.219-0.107-0.356-0.027c-1.405,0.817-2.815,1.626-4.216,2.449c-0.092,0.054-0.179,0.207-0.179,0.314
		c-0.012,1.422-0.012,2.845,0,4.267c0.001,0.108,0.087,0.26,0.179,0.314c1.401,0.823,2.811,1.632,4.216,2.449
		c0.137,0.08,0.222,0.079,0.356-0.026c0.204-0.16,0.43-0.312,0.672-0.398c0.212-0.076,0.25-0.183,0.249-0.38
		C25.651,17.7,25.654,16.336,25.654,14.972z M15.451,9.109c0.677,0.127,1.33,0.199,1.951,0.377c1.124,0.321,2.168,0.784,2.585,2.047
		c1.337-0.771,2.669-1.537,3.995-2.312c0.056-0.033,0.084-0.153,0.085-0.234c0.005-0.28-0.043-0.567-0.001-0.84
		c0.03-0.196-0.02-0.275-0.175-0.363c-0.77-0.437-1.535-0.882-2.302-1.325c-1.618-0.934-3.235-1.868-4.856-2.796
		c-0.085-0.048-0.23-0.086-0.302-0.046c-0.327,0.182-0.638,0.393-0.982,0.612C15.451,5.828,15.451,7.481,15.451,9.109z
		 M19.963,18.394c-0.136,0.6-0.484,1.007-0.941,1.334c-0.554,0.396-1.177,0.648-1.836,0.792c-0.567,0.124-1.143,0.2-1.73,0.3
		c0.007-0.009-0.003-0.002-0.003,0.006c-0.004,1.607-0.01,3.213-0.005,4.82c0,0.066,0.089,0.152,0.157,0.193
		c0.239,0.145,0.506,0.252,0.726,0.419c0.151,0.114,0.242,0.125,0.403,0.032c2.372-1.377,4.748-2.749,7.126-4.117
		c0.169-0.097,0.273-0.175,0.199-0.402c-0.052-0.16-0.069-0.362-0.019-0.519c0.139-0.43-0.094-0.61-0.429-0.753
		c-0.089-0.038-0.169-0.097-0.253-0.145C22.238,19.707,21.118,19.061,19.963,18.394z M13.36,3.576
		c0.041-0.013,0.011-0.009-0.013,0.005c-2.452,1.415-4.904,2.828-7.351,4.252C5.927,7.872,5.889,8.01,5.885,8.104
		C5.874,8.374,5.929,8.654,5.88,8.915c-0.041,0.216,0.033,0.29,0.192,0.38c1.005,0.574,2.007,1.155,3.01,1.733
		c0.293,0.169,0.588,0.336,0.9,0.514c0.13-0.577,0.447-1.013,0.918-1.296c0.463-0.278,0.952-0.544,1.464-0.7
		c0.682-0.207,1.399-0.301,2.133-0.45c-0.015,0.031,0,0.015,0-0.002c0.003-1.597,0.007-3.194,0.002-4.791
		c0-0.065-0.064-0.156-0.124-0.189C14.057,3.935,13.73,3.77,13.36,3.576z M14.492,20.832c-0.679-0.127-1.332-0.197-1.954-0.375
		c-1.123-0.322-2.171-0.78-2.574-2.036c-0.036,0.013-0.064,0.02-0.089,0.034c-1.289,0.744-2.577,1.49-3.869,2.23
		c-0.134,0.076-0.153,0.15-0.134,0.301c0.034,0.258,0.059,0.531,0.01,0.782c-0.044,0.222,0.023,0.304,0.197,0.404
		c2.143,1.231,4.281,2.469,6.421,3.704c0.309,0.178,0.619,0.354,0.87,0.498c0.404-0.231,0.755-0.431,1.12-0.64
		C14.492,24.112,14.492,22.459,14.492,20.832z M14.943,13.488c0.942-0.015,1.834-0.106,2.673-0.453
		c0.381-0.158,0.757-0.367,1.076-0.626c0.474-0.386,0.467-0.842,0.005-1.238c-0.254-0.218-0.554-0.4-0.86-0.538
		c-0.94-0.423-1.942-0.545-2.964-0.535c-1.023,0.01-2.023,0.153-2.944,0.62c-0.313,0.159-0.603,0.394-0.85,0.646
		c-0.249,0.255-0.251,0.59-0.003,0.846c0.245,0.253,0.536,0.487,0.849,0.647C12.88,13.345,13.924,13.469,14.943,13.488z
		 M10.904,13.427c0,0.408,0.027,0.825-0.007,1.238c-0.043,0.536,0.198,0.896,0.622,1.164c0.188,0.119,0.384,0.232,0.59,0.317
		c1.47,0.604,2.988,0.658,4.53,0.37c0.654-0.122,1.28-0.332,1.834-0.717c0.385-0.267,0.614-0.605,0.572-1.104
		c-0.028-0.339-0.004-0.681-0.006-1.022c0-0.088-0.009-0.177-0.012-0.238C16.302,14.774,13.622,14.769,10.904,13.427z
		 M10.903,16.634c0,0.442,0.011,0.896-0.004,1.35c-0.011,0.341,0.103,0.631,0.374,0.813c0.352,0.236,0.719,0.474,1.113,0.621
		c1.288,0.483,2.625,0.524,3.972,0.317c0.746-0.115,1.474-0.311,2.09-0.765c0.224-0.165,0.501-0.412,0.535-0.653
		c0.079-0.557,0.025-1.133,0.025-1.669C16.31,17.967,13.627,17.96,10.903,16.634z M13.807,2.11c0.007,0.627,0.535,1.153,1.162,1.155
		c0.637,0.002,1.175-0.54,1.168-1.178c-0.007-0.643-0.547-1.164-1.191-1.151C14.315,0.949,13.8,1.48,13.807,2.11z M16.137,27.838
		c-0.002-0.628-0.525-1.155-1.154-1.162c-0.638-0.007-1.178,0.53-1.175,1.17c0.003,0.63,0.524,1.154,1.154,1.159
		C15.604,29.011,16.139,28.48,16.137,27.838z M4.982,8.526C4.978,7.889,4.466,7.375,3.831,7.371
		c-0.644-0.003-1.17,0.526-1.165,1.173C2.671,9.178,3.188,9.697,3.82,9.7C4.465,9.704,4.986,9.178,4.982,8.526z M24.963,8.541
		c0.002,0.637,0.513,1.153,1.148,1.159c0.641,0.006,1.172-0.527,1.168-1.172c-0.004-0.636-0.519-1.153-1.151-1.157
		C25.481,7.367,24.961,7.89,24.963,8.541z M4.981,21.413c0.003-0.651-0.518-1.176-1.164-1.171c-0.632,0.005-1.148,0.523-1.152,1.157
		c-0.004,0.645,0.525,1.176,1.168,1.171C4.467,22.566,4.978,22.05,4.981,21.413z M24.963,21.4c-0.002,0.651,0.519,1.175,1.164,1.17
		c0.631-0.004,1.147-0.523,1.152-1.157c0.004-0.644-0.526-1.176-1.168-1.171C25.476,20.248,24.965,20.763,24.963,21.4z"/>
</g>
</svg>
