<?xml version="1.0" encoding="utf-8"?>
<!-- Generator: Adobe Illustrator 17.0.0, SVG Export Plug-In . SVG Version: 6.00 Build 0)  -->
<!DOCTYPE svg PUBLIC "-//W3C//DTD SVG 1.1//EN" "http://www.w3.org/Graphics/SVG/1.1/DTD/svg11.dtd">
<svg version="1.1" id="Layer_1" xmlns="http://www.w3.org/2000/svg" xmlns:xlink="http://www.w3.org/1999/xlink" x="0px" y="0px"
	 width="15px" height="15px" viewBox="0 0 15 15" enable-background="new 0 0 15 15" xml:space="preserve">
<g>
	<path fill="#FFFFFF" d="M6.76,5.944C6.674,6.013,6.582,6.063,6.524,6.138c-0.26,0.337-0.343,0.736-0.37,1.15
		c-0.018,0.28-0.13,0.42-0.34,0.418C5.609,7.704,5.471,7.544,5.484,7.275c0.011-0.228,0.04-0.46,0.096-0.681
		c0.056-0.22,0.154-0.428,0.237-0.649C4.447,5.689,3.325,4.935,2.23,4.132C2.042,3.995,1.863,3.926,1.626,3.925
		C0.762,3.922,0.126,3.372,0.029,2.574c-0.102-0.84,0.5-1.607,1.341-1.688c0.288-0.028,0.579-0.016,0.869-0.017
		c1.348-0.001,2.696-0.001,4.043,0c0.094,0,0.188,0.001,0.281,0.013c0.181,0.024,0.273,0.141,0.271,0.315
		c-0.001,0.168-0.078,0.3-0.258,0.333c-0.1,0.018-0.203,0.019-0.305,0.019C4.718,1.55,3.166,1.546,1.613,1.551
		C1.015,1.553,0.66,1.917,0.701,2.468c0.034,0.46,0.354,0.807,0.815,0.778C2.107,3.209,2.707,3.151,3.281,3.01
		C4.098,2.81,4.9,2.546,5.696,2.274C6.446,2.017,7.201,1.827,7.997,1.88c0.125,0.008,0.279,0.085,0.358,0.181
		C8.753,2.549,9.067,3.088,9.129,3.73C9.215,4.614,8.831,5.317,8.22,5.914C8.157,5.976,8.014,5.982,7.91,5.973
		C7.724,5.959,7.611,6.035,7.513,6.185c-0.217,0.33-0.337,0.686-0.34,1.081C7.17,7.541,7.056,7.673,6.829,7.67
		C6.617,7.667,6.477,7.53,6.51,7.27C6.564,6.845,6.666,6.426,6.76,5.944z M5.481,3.927C5.475,3.735,5.324,3.596,5.13,3.602
		C4.937,3.608,4.799,3.755,4.805,3.951c0.006,0.19,0.16,0.334,0.35,0.328C5.343,4.272,5.487,4.116,5.481,3.927z"/>
	<path fill="#FFFFFF" d="M9.824,10.806c-0.294-0.1-0.58-0.164-0.836-0.289c-0.73-0.356-1.054-0.984-1.11-1.77
		C7.861,8.512,7.996,8.381,8.212,8.382C8.953,8.385,9.7,8.356,10.433,8.441c0.386,0.044,0.749,0.295,1.119,0.46
		c0.12,0.054,0.132,0.142,0.08,0.272c-0.336,0.849-0.148,1.581,0.498,2.217c0.072,0.07,0.112,0.226,0.091,0.328
		c-0.101,0.504-0.335,0.947-0.692,1.318c-0.319,0.332-0.646,0.656-0.975,0.979c-0.226,0.222-0.392,0.214-0.611-0.014
		c-0.748-0.778-0.863-2.021-0.275-2.958C9.719,10.963,9.772,10.886,9.824,10.806z"/>
	<path fill="#FFFFFF" d="M9.076,5.978c0.494-0.635,0.746-1.306,0.76-2.061c0.014-0.754-0.247-1.41-0.745-2.02
		c0.576,0,1.108-0.013,1.639,0.005c0.304,0.01,0.608,0.065,0.909,0.116c0.068,0.012,0.163,0.08,0.181,0.142
		c0.167,0.575,0.306,1.161,0.174,1.759c-0.205,0.929-0.825,1.545-1.613,2.008c-0.124,0.073-0.313,0.044-0.472,0.048
		C9.649,5.983,9.389,5.978,9.076,5.978z"/>
	<path fill="#FFFFFF" d="M11.451,5.975c1.145-0.967,1.504-2.143,1.192-3.567c0.088,0.044,0.154,0.072,0.216,0.109
		c0.703,0.422,1.256,0.989,1.635,1.717c0.045,0.086,0.036,0.223,0.004,0.321c-0.053,0.16-0.138,0.311-0.223,0.458
		c-0.339,0.591-0.849,0.924-1.531,0.959C12.332,5.992,11.918,5.975,11.451,5.975z"/>
	<path fill="#FFFFFF" d="M12.879,8.034c0.677,0.253,1.314,0.281,1.992-0.075c-0.344,1.296-1.033,2.283-2.073,3.033
		c-0.588-0.481-0.79-0.881-0.479-1.568C12.522,8.977,12.688,8.513,12.879,8.034z"/>
	<path fill="#FFFFFF" d="M12.504,6.686c1.044,0.01,1.822-0.466,2.413-1.386c0.118,0.624,0.139,1.187,0.086,1.753
		C15,7.089,14.967,7.133,14.935,7.151c-0.572,0.321-1.151,0.551-1.817,0.246C12.677,7.195,12.653,7.193,12.504,6.686z"/>
</g>
</svg>
